<svg width="1920" height="336" viewBox="0 0 1920 336" fill="none" xmlns="http://www.w3.org/2000/svg">
<path d="M606.858 335.057V0.0771484H700.316V128.446H925.729V0.0771484H1018.72V335.057H925.729V206.689H700.316V335.057H606.858Z" fill="#E8E0CD"/>
<path d="M1525.05 0.0771484H1920V78.7901H1769.72V335.057H1676.27V78.7901H1525.05V0.0771484Z" fill="#E8E0CD"/>
<path d="M1515.84 137.245C1565.25 239.637 1601.99 252.9 1643.82 252.9V335.059C1555.75 335.059 1487.97 302.19 1428.4 174.526C1397.36 108.162 1384.69 85.9968 1347.3 85.9968C1309.9 85.9968 1294.72 108.162 1263.68 174.526C1204.11 302.19 1137.61 335.059 1049.55 335.059V252.9C1091.37 252.9 1127.48 239.637 1176.27 137.245C1215.55 55.086 1253.55 0 1347.32 0C1441.09 0 1475.93 55.086 1515.84 137.245Z" fill="#E8E0CD"/>
<path d="M471.265 223.476C465.298 230.759 457.499 237.051 447.816 242.403C438.133 247.755 426.827 252.063 413.872 255.326C400.917 258.59 386.706 260.234 371.239 260.234C370.349 260.234 369.459 260.234 368.57 260.234H208.061C191.259 260.026 176.002 257.728 162.288 253.342C147.841 248.747 135.41 242.351 124.994 234.179C114.578 226.008 106.543 216.139 100.89 204.548C95.2371 192.956 92.4106 180.347 92.4106 166.693C92.4106 153.039 95.2371 140.559 100.89 129.281C106.543 118.003 114.578 108.265 124.994 100.093C135.41 91.9218 147.841 85.6039 162.288 81.1657C176.002 76.9363 191.259 74.7172 208.061 74.5083H368.57C369.459 74.5083 370.349 74.5083 371.239 74.5083C386.706 74.5083 400.943 76.1531 413.872 79.4165C426.827 82.6799 438.133 86.9876 447.816 92.3395C457.473 97.6915 465.298 103.931 471.265 111.058C477.206 118.186 480.923 125.757 482.441 133.771H576.657C574.563 114.165 568.021 96.125 557.002 79.6515C545.984 63.1779 531.485 49.08 513.453 37.3318C495.448 25.6097 474.38 16.4722 450.276 9.94545C426.172 3.41867 399.818 0.155273 371.239 0.155273C370.349 0.155273 369.459 0.155273 368.57 0.155273H208.061C177.86 0.390237 150.171 4.38463 125.02 12.1645C99.1105 20.1794 76.865 31.4838 58.2572 46.0255C39.6495 60.5671 25.2814 78.085 15.1793 98.5791C5.05102 119.073 0 141.786 0 166.719C0 191.651 5.05102 214.991 15.1793 235.772C25.3076 256.553 39.6495 274.306 58.2572 289.004C76.865 303.703 99.1105 315.059 125.02 323.074C150.171 330.854 177.86 334.848 208.061 335.083H368.57C369.459 335.083 370.349 335.083 371.239 335.083C399.818 335.083 426.172 331.82 450.276 325.293C474.38 318.767 495.448 309.551 513.453 297.672C531.459 285.793 545.984 271.617 557.002 255.143C568.021 238.67 574.563 220.473 576.657 200.58H482.441C480.949 208.594 477.232 216.244 471.265 223.528V223.476Z" fill="#E8E0CD"/>
</svg>
